<?xml version="1.0" encoding="UTF-8" standalone="no"?>
<!-- Created with Inkscape (http://www.inkscape.org/) -->

<svg
   width="250mm"
   height="250mm"
   viewBox="0 0 250 250"
   version="1.1"
   id="svg5"
   inkscape:version="1.1.1 (3bf5ae0d25, 2021-09-20)"
   sodipodi:docname="应用大圆环1.svg"
   inkscape:export-filename="C:\Users\Hengzhu\位图.png"
   inkscape:export-xdpi="96"
   inkscape:export-ydpi="96"
   xmlns:inkscape="http://www.inkscape.org/namespaces/inkscape"
   xmlns:sodipodi="http://sodipodi.sourceforge.net/DTD/sodipodi-0.dtd"
   xmlns:xlink="http://www.w3.org/1999/xlink"
   xmlns="http://www.w3.org/2000/svg"
   xmlns:svg="http://www.w3.org/2000/svg">
  <sodipodi:namedview
     id="namedview7"
     pagecolor="#ffffff"
     bordercolor="#666666"
     borderopacity="1.0"
     inkscape:pageshadow="2"
     inkscape:pageopacity="0.0"
     inkscape:pagecheckerboard="true"
     inkscape:document-units="mm"
     showgrid="false"
     width="250mm"
     inkscape:zoom="0.733172"
     inkscape:cx="346.43985"
     inkscape:cy="452.82689"
     inkscape:window-width="1920"
     inkscape:window-height="1009"
     inkscape:window-x="-8"
     inkscape:window-y="-8"
     inkscape:window-maximized="1"
     inkscape:current-layer="layer1" />
  <defs
     id="defs2">
    <inkscape:path-effect
       effect="spiro"
       id="path-effect1062"
       is_visible="true"
       lpeversion="1" />
    <inkscape:path-effect
       effect="spiro"
       id="path-effect12727"
       is_visible="true"
       lpeversion="1" />
    <inkscape:path-effect
       effect="spiro"
       id="path-effect12880"
       is_visible="true"
       lpeversion="1" />
    <marker
       style="overflow:visible"
       id="Arrow1Mend"
       refX="0"
       refY="0"
       orient="auto"
       inkscape:stockid="Arrow1Mend"
       inkscape:isstock="true">
      <path
         transform="matrix(-0.4,0,0,-0.4,-4,0)"
         style="fill:context-stroke;fill-rule:evenodd;stroke:context-stroke;stroke-width:1pt"
         d="M 0,0 5,-5 -12.5,0 5,5 Z"
         id="path13352" />
    </marker>
    <marker
       style="overflow:visible"
       id="marker14050"
       refX="0"
       refY="0"
       orient="auto"
       inkscape:stockid="Arrow1Mend"
       inkscape:isstock="true">
      <path
         transform="matrix(-0.4,0,0,-0.4,-4,0)"
         style="fill:context-stroke;fill-rule:evenodd;stroke:context-stroke;stroke-width:1pt"
         d="M 0,0 5,-5 -12.5,0 5,5 Z"
         id="path14048" />
    </marker>
    <marker
       style="overflow:visible"
       id="Arrow1Mstart"
       refX="0"
       refY="0"
       orient="auto"
       inkscape:stockid="Arrow1Mstart"
       inkscape:isstock="true">
      <path
         transform="matrix(0.4,0,0,0.4,4,0)"
         style="fill:context-stroke;fill-rule:evenodd;stroke:context-stroke;stroke-width:1pt"
         d="M 0,0 5,-5 -12.5,0 5,5 Z"
         id="path13349" />
    </marker>
  </defs>
  <g
     inkscape:label="图层 1"
     inkscape:groupmode="layer"
     id="layer1">
    <path
       id="path1158"
       style="fill:none;stroke:#000000;stroke-width:1;stroke-miterlimit:4;stroke-dasharray:none"
       d="M 124.64081,26.245899 A 98.863768,98.863768 0 0 0 25.777111,125.1096 98.863768,98.863768 0 0 0 124.64081,223.97333 98.863768,98.863768 0 0 0 223.50454,125.1096 98.863768,98.863768 0 0 0 124.64081,26.245899 Z" />
    <path
       style="fill:none;stroke:#000000;stroke-width:1;stroke-linecap:butt;stroke-linejoin:miter;stroke-miterlimit:4;stroke-dasharray:none;stroke-opacity:1"
       d="m 124.5504,199.20981 v 49.80244"
       id="path1595" />
    <path
       style="fill:none;stroke:#000000;stroke-width:1;stroke-linecap:butt;stroke-linejoin:miter;stroke-miterlimit:4;stroke-dasharray:none;stroke-opacity:1"
       d="M 189.42229,89.134387 232.43436,64.015885"
       id="path1605" />
    <path
       style="fill:none;stroke:#000000;stroke-width:1;stroke-linecap:butt;stroke-linejoin:miter;stroke-miterlimit:4;stroke-dasharray:none;stroke-opacity:1"
       d="M 60.432058,88.121467 17.265301,63.283747"
       id="path1800" />
    <path
       style="fill:none;stroke:#000000;stroke-width:1;stroke-linecap:butt;stroke-linejoin:miter;stroke-miterlimit:4;stroke-dasharray:none;stroke-opacity:1"
       d="M 175.36221,40.248608 125.87062,126.16758 75.328676,39.421885"
       id="path1995" />
    <path
       style="fill:none;stroke:#000000;stroke-width:1;stroke-linecap:butt;stroke-linejoin:miter;stroke-miterlimit:4;stroke-dasharray:none;stroke-opacity:1"
       d="M 125.87062,126.16758 V 26.253384"
       id="path1997" />
    <path
       style="fill:none;stroke:#000000;stroke-width:1;stroke-linecap:butt;stroke-linejoin:miter;stroke-miterlimit:4;stroke-dasharray:none;stroke-opacity:1"
       d="m 174.64069,125.75805 h 48.86163"
       id="path2112" />
    <path
       style="fill:none;stroke:#000000;stroke-width:1;stroke-linecap:butt;stroke-linejoin:miter;stroke-miterlimit:4;stroke-dasharray:none;stroke-opacity:1"
       d="M 74.640723,125.75805 H 25.779073"
       id="path2114" />
    <path
       style="fill:none;stroke:#000000;stroke-width:1;stroke-linecap:butt;stroke-linejoin:miter;stroke-miterlimit:4;stroke-dasharray:none;stroke-opacity:1"
       d="m 174.53612,210.4587 -48.6655,-84.29112 -49.274735,85.3464"
       id="path2116" />
    <path
       style="fill:none;stroke:#000000;stroke-width:1;stroke-linecap:butt;stroke-linejoin:miter;stroke-miterlimit:4;stroke-dasharray:none;stroke-opacity:1"
       d="M 189.42229,89.134387 39.646585,175.60742"
       id="path2118" />
    <path
       style="fill:none;stroke:#000000;stroke-width:1;stroke-linecap:butt;stroke-linejoin:miter;stroke-miterlimit:4;stroke-dasharray:none;stroke-opacity:1"
       d="M 60.432058,88.121467 210.22332,174.60348"
       id="path2120" />
    <ellipse
       style="fill:#ffff5f;fill-opacity:1;stroke:#000000;stroke-width:1;stroke-miterlimit:4;stroke-dasharray:none"
       id="path1054"
       cx="124.64075"
       cy="125.10956"
       rx="74.10038"
       ry="74.100388" />
    <ellipse
       style="fill:#ff945f;fill-opacity:1;stroke:#000000;stroke-width:1.3283"
       id="path950"
       cx="124.64075"
       cy="125.10956"
       rx="49.335854"
       ry="49.33585" />
    <path
       style="fill:none;stroke:#000000;stroke-width:1;stroke-linecap:butt;stroke-linejoin:miter;stroke-miterlimit:4;stroke-dasharray:none;stroke-opacity:1"
       d="M 74.640723,125.75805 H 174.64069"
       id="path1458" />
    <path
       style="fill:none;stroke:#000000;stroke-width:1;stroke-linecap:butt;stroke-linejoin:miter;stroke-miterlimit:4;stroke-dasharray:none;stroke-opacity:1"
       d="M 125.96355,175.11145 125.77369,75.111661"
       id="path1458-1" />
    <path
       style="fill:#ffd2d2;fill-opacity:1;stroke:#000000;stroke-width:0;stroke-miterlimit:4;stroke-dasharray:none"
       d="m 26.628222,121.84491 c 0,-4.96984 1.455722,-14.79032 3.188737,-21.51163 1.637033,-6.349014 5.76321,-17.022909 8.164399,-21.120228 l 1.360699,-2.321859 9.650376,5.580206 c 5.307705,3.069113 9.739418,5.666499 9.848252,5.771967 0.108833,0.105468 -0.891289,2.642717 -2.222495,5.638329 -4.027919,9.063995 -6.699578,20.143465 -6.704507,27.803825 l -0.0021,3.30729 H 38.269889 26.628222 Z"
       id="path4955" />
    <path
       style="fill:#ff9493;fill-opacity:1;stroke:#000000;stroke-width:0;stroke-miterlimit:4;stroke-dasharray:none"
       d="m 39.103427,173.01468 c -1.712151,-2.61901 -5.643261,-11.56111 -7.429381,-16.89963 -2.861527,-8.55279 -5.027954,-20.27804 -5.041482,-27.28578 l -0.0043,-2.24896 H 38.190691 49.75312 l 0.337471,4.7543 c 0.63958,9.01045 3.322317,18.68953 7.468118,26.94432 l 2.356594,4.69226 -9.744006,5.61706 c -5.359202,3.08938 -9.866734,5.61706 -10.016736,5.61706 -0.150003,0 -0.622994,-0.53578 -1.051092,-1.19063 z"
       id="path4994" />
    <path
       style="fill:#ff5389;fill-opacity:1;stroke:#000000;stroke-width:0;stroke-miterlimit:4;stroke-dasharray:none"
       d="m 71.027972,207.11296 c -6.948318,-4.66355 -10.859079,-7.95105 -16.908221,-14.21354 -4.921676,-5.09526 -10.89646,-12.62779 -12.60384,-15.88992 -0.568526,-1.08623 -0.351163,-1.31386 3.231602,-3.38431 2.112619,-1.22087 6.598724,-3.81977 9.969122,-5.77534 l 6.127993,-3.55559 1.526678,2.41316 c 5.10767,8.07348 14.68584,17.25281 23.323174,22.35196 l 2.180838,1.28749 -5.633995,9.74902 c -3.098697,5.36196 -5.866011,9.82117 -6.149588,9.90936 -0.283578,0.0882 -2.56227,-1.21335 -5.063763,-2.89229 z"
       id="path5033" />
    <path
       style="fill:#ff6f32;fill-opacity:1;stroke:#000000;stroke-width:0;stroke-miterlimit:4;stroke-dasharray:none"
       d="m 116.7461,222.85203 c -7.26924,-0.55918 -15.51493,-2.27396 -23.147852,-4.81385 -5.591432,-1.86058 -14.105702,-5.62361 -15.265929,-6.74705 -0.230352,-0.22305 2.12866,-4.81806 5.242248,-10.21115 l 5.661067,-9.80559 3.753585,1.70366 c 7.984041,3.62377 15.780131,5.71863 24.579411,6.60463 3.01401,0.30349 5.69292,0.55179 5.95312,0.55179 0.26369,0 0.4731,5.15312 0.4731,11.64167 0,10.76322 -0.0699,11.63598 -0.92604,11.56634 -0.50932,-0.0414 -3.35454,-0.26213 -6.32271,-0.49045 z"
       id="path5072" />
    <path
       style="fill:#b3ffa2;fill-opacity:1;stroke:#000000;stroke-width:0;stroke-miterlimit:4;stroke-dasharray:none"
       d="m 125.05319,211.79835 v -11.57964 l 3.57187,-0.32692 c 11.33953,-1.03786 21.04788,-3.57768 29.04491,-7.59851 l 4.22608,-2.12483 5.65117,9.8033 c 3.10814,5.39181 5.51611,10.02181 5.35105,10.28889 -0.50231,0.81276 -8.10742,4.43977 -13.71384,6.54037 -9.64751,3.6147 -18.30417,5.40272 -30.55937,6.31197 l -3.57187,0.26501 z"
       id="path5111" />
    <path
       style="fill:#b5ff7b;fill-opacity:1;stroke:#000000;stroke-width:0;stroke-miterlimit:4;stroke-dasharray:none"
       d="m 174.4292,208.47608 c -0.23545,-0.35983 -2.83939,-4.82019 -5.78652,-9.91192 l -5.35842,-9.25769 2.69072,-1.77206 c 8.30767,-5.47124 17.57087,-14.89802 21.80754,-22.19264 0.54937,-0.94589 1.18348,-1.71979 1.40914,-1.71979 0.38798,0 17.10087,9.50405 19.07121,10.84515 0.83996,0.5717 0.59214,1.10743 -2.71634,5.87218 -7.17023,10.3263 -15.15218,18.35364 -25.27111,25.41482 -2.661,1.8569 -4.96867,3.37618 -5.12815,3.37618 -0.15948,0 -0.48261,-0.29441 -0.71807,-0.65423 z"
       id="path5150" />
    <path
       style="fill:#7bff75;fill-opacity:1;stroke:#000000;stroke-width:0;stroke-miterlimit:4;stroke-dasharray:none"
       d="m 199.93027,167.77312 c -4.94771,-2.89747 -9.19237,-5.46337 -9.43258,-5.70201 -0.24021,-0.23863 0.43745,-2.1698 1.50592,-4.29149 3.73986,-7.42637 6.20576,-16.79051 7.41462,-28.1566 l 0.32361,-3.04271 h 11.47985 11.47985 l -0.38748,6.04652 c -0.49102,7.66225 -2.02167,15.24213 -4.7096,23.32223 -2.51915,7.57277 -7.01146,17.21917 -7.98441,17.14505 -0.38167,-0.0291 -4.74207,-2.42353 -9.68978,-5.32099 z"
       id="path5189" />
    <path
       style="fill:#38ff35;fill-opacity:1;stroke:#000000;stroke-width:0;stroke-miterlimit:4;stroke-dasharray:none"
       d="m 199.66568,124.25513 c 0,-0.40573 -0.2483,-3.2037 -0.55179,-6.21771 -0.89256,-8.86442 -2.978,-16.58978 -6.67943,-24.743552 -0.97816,-2.154749 -1.71582,-3.965184 -1.63925,-4.023188 1.07674,-0.815666 19.64056,-11.363309 19.77057,-11.233298 0.099,0.09901 1.23455,2.310593 2.52342,4.914619 4.58807,9.269725 8.41557,23.016019 9.06452,32.554889 0.16684,2.45236 0.42223,5.58993 0.56755,6.97238 l 0.2642,2.51354 h -11.65989 c -9.6177,0 -11.6599,-0.1292 -11.6599,-0.73768 z"
       id="path5228" />
    <path
       style="fill:#4179ff;fill-opacity:1;stroke:#000000;stroke-width:0.25;stroke-miterlimit:4;stroke-dasharray:none"
       d="M 187.0956,83.828978 C 181.96606,75.974796 174.61559,68.516274 166.70055,63.134125 l -2.53805,-1.725848 1.7443,-3.052112 c 0.95937,-1.678659 3.52129,-6.163968 5.69315,-9.967351 l 3.94885,-6.91524 1.38424,0.715814 c 3.23295,1.671823 10.69928,7.679799 16.02872,12.897927 5.62545,5.507942 11.07195,12.165669 14.85898,18.163384 l 1.91103,3.026603 -1.19659,0.750983 c -1.49784,0.940056 -16.26062,9.534911 -17.70727,10.309137 -0.95973,0.51363 -1.33731,0.158702 -3.73231,-3.508444 z"
       id="path5267" />
    <path
       style="fill:#b5b8ff;fill-opacity:1;stroke:#000000;stroke-width:0;stroke-miterlimit:4;stroke-dasharray:none"
       d="m 157.74102,58.026698 c -7.95412,-4.054633 -17.61159,-6.76566 -26.54831,-7.452592 L 126.64069,50.22421 V 38.660611 27.09701 l 1.98437,0.0043 c 3.28456,0.0072 11.19929,1.028639 16.43786,2.121427 7.22876,1.507942 15.37082,4.357452 22.74172,7.959002 l 6.50354,3.177741 -1.74104,3.05639 c -0.95757,1.681017 -3.52698,6.190896 -5.70979,10.021954 -2.18281,3.831061 -4.08781,6.960505 -4.23333,6.954321 -0.14552,-0.0062 -2.34287,-1.070652 -4.883,-2.365486 z"
       id="path5306" />
    <path
       style="fill:#7aa3ff;fill-opacity:1;stroke:#000000;stroke-width:0;stroke-miterlimit:4;stroke-dasharray:none"
       d="m 87.623329,58.714718 c -1.069824,-1.366602 -10.724274,-18.248405 -10.724274,-18.7525 0,-1.445746 14.14893,-7.403221 23.006778,-9.687128 6.815767,-1.757373 16.531977,-3.17808 21.734867,-3.17808 h 3.41249 v 11.56567 11.565673 l -5.42396,0.292423 c -8.94334,0.482164 -20.336254,3.442896 -27.856872,7.23931 -3.693242,1.864344 -3.476003,1.814359 -4.149029,0.954632 z"
       id="path5345" />
    <path
       style="fill:#7a79ff;fill-opacity:1;stroke:#000000;stroke-width:0;stroke-miterlimit:4;stroke-dasharray:none"
       d="M 50.176139,81.306129 C 44.937389,78.262193 40.580344,75.56126 40.493818,75.304056 40.297068,74.719216 45.527436,66.96694 48.74101,63.080343 54.884071,55.650737 62.037089,49.17592 70.254354,43.606756 l 4.732383,-3.207324 5.718659,9.868609 c 3.145263,5.427734 5.710608,9.995156 5.70077,10.149829 -0.0098,0.154673 -1.974371,1.581454 -4.365624,3.170624 -5.581992,3.709659 -15.211177,13.338844 -18.920836,18.920835 -1.589169,2.391254 -3.008463,4.344022 -3.153984,4.339482 -0.145521,-0.0045 -4.550833,-2.498746 -9.789583,-5.542682 z"
       id="path5384" />
    <path
       style="fill:#0000ff;fill-opacity:0.609971;stroke:#000000;stroke-width:0;stroke-miterlimit:4;stroke-dasharray:none"
       d="M 207.45708,69.831107 C 185.11053,36.003912 143.76857,19.191623 103.88652,27.712672 90.186001,30.639881 77.777006,36.132319 66.142666,44.418773 57.41966,50.631652 45.042209,63.897276 40.10053,72.32961 c -1.333693,2.275777 -1.498491,2.38596 -2.554202,1.707716 -0.620686,-0.398764 -4.998054,-2.942045 -9.727481,-5.651738 -4.729427,-2.709693 -8.598958,-5.104887 -8.598958,-5.322655 0,-0.667697 6.275924,-9.997109 9.39347,-13.963766 1.619227,-2.060249 6.061702,-6.86249 9.872165,-10.671648 C 58.421066,18.498809 83.682649,6.3349861 111.40629,3.31508 c 6.42891,-0.700294 19.73272,-0.7085411 26.30555,-0.016307 36.78378,3.8739828 71.78907,25.894454 90.94175,57.207936 l 2.14796,3.511783 -9.1016,5.323729 c -5.00588,2.928048 -9.45161,5.457147 -9.87939,5.620226 -0.54409,0.207412 -1.85517,-1.334384 -4.36348,-5.13134 z"
       id="path5423" />
    <path
       style="fill:#ff0000;fill-opacity:0.6;stroke:#ff0000;stroke-width:0;stroke-miterlimit:4;stroke-dasharray:none;stroke-opacity:1"
       d="M 113.6761,247.16055 C 79.722874,243.91037 49.724892,227.51494 28.118774,200.39906 14.704206,183.56365 5.128382,160.00408 2.8299854,138.18063 2.1377514,131.60781 2.1459985,118.30399 2.8462914,111.87508 4.0179113,101.11925 7.0090338,89.260311 11.039698,79.390527 c 2.300571,-5.633344 5.737757,-12.842139 6.685211,-14.020861 0.362572,-0.451072 3.134298,0.902594 10.125233,4.945004 5.294297,3.061357 9.683967,5.621319 9.75482,5.688807 0.07085,0.06749 -1.039437,2.485673 -2.467308,5.373743 -11.317283,22.89078 -13.166504,50.64652 -5.016164,75.28968 11.69531,35.36165 43.090972,61.59185 80.18294,66.99064 3.09329,0.45023 7.43907,0.8186 9.65729,0.8186 h 4.03313 v 11.64167 11.64166 l -2.77812,-0.0715 c -1.52797,-0.0393 -4.92125,-0.27667 -7.54063,-0.52741 z"
       id="path5462" />
    <path
       style="fill:#00ff01;fill-opacity:0.595308;stroke:#000000;stroke-width:0;stroke-miterlimit:4;stroke-dasharray:none"
       d="m 125.05319,236.26092 v -11.62498 l 6.74687,-0.32603 c 19.51369,-0.94295 40.60234,-9.31956 56.22396,-22.33267 17.61092,-14.67023 29.27717,-34.02787 34.21265,-56.76855 1.83897,-8.47325 2.32899,-24.88827 1.01418,-33.97421 -1.57355,-10.87389 -4.67561,-20.96966 -9.22093,-30.009854 l -2.14649,-4.269144 9.67864,-5.614654 c 5.32325,-3.088058 9.85362,-5.614652 10.06749,-5.614652 0.56508,0 5.69714,11.039523 7.95972,17.12209 2.54206,6.833886 5.2436,17.556864 6.41837,25.475794 1.13883,7.67665 1.31265,24.17412 0.32896,31.22083 -3.27568,23.46549 -12.05614,44.41317 -25.9314,61.86491 -19.23221,24.1895 -47.66382,40.42906 -78.74083,44.97519 -2.87876,0.42112 -7.79396,0.9311 -10.92265,1.13329 l -5.68854,0.36761 z"
       id="path5501" />
    <text
       xml:space="preserve"
       style="font-style:normal;font-weight:normal;font-size:10.5833px;line-height:1.25;font-family:sans-serif;fill:#000000;fill-opacity:1;stroke:none;stroke-width:0.264583"
       id="text14209"
       transform="translate(-2.9934187,5.6126601)"><textPath
         xlink:href="#path12725"
         id="textPath12842"><tspan
           id="tspan14207"
           style="stroke-width:0.264583">化学</tspan></textPath></text>
    <text
       xml:space="preserve"
       style="font-style:normal;font-weight:normal;font-size:10.5833px;line-height:1.25;font-family:sans-serif;fill:#000000;fill-opacity:1;stroke:none;stroke-width:0.264583"
       id="text22359"
       transform="rotate(175.17958,221.42519,180.24469)"><textPath
         xlink:href="#path12878"
         id="textPath12995"><tspan
           id="tspan22357"
           style="stroke-width:0.264583">医药</tspan></textPath></text>
    <text
       xml:space="preserve"
       style="font-style:normal;font-weight:normal;font-size:10.5833px;line-height:1.25;font-family:sans-serif;fill:#000000;fill-opacity:1;stroke:none;stroke-width:0.264583"
       id="text25123"
       transform="translate(-0.3741773,4.1159507)"><textPath
         xlink:href="#path1060"
         id="textPath12689"><tspan
           id="tspan25121"
           style="stroke-width:0.264583">水力、机械、海洋、国防、勘探</tspan></textPath></text>
    <text
       xml:space="preserve"
       style="font-style:normal;font-variant:normal;font-weight:normal;font-stretch:normal;font-size:8.46667px;line-height:1.25;font-family:sans-serif;-inkscape-font-specification:'sans-serif, Normal';font-variant-ligatures:normal;font-variant-caps:normal;font-variant-numeric:normal;font-variant-east-asian:normal;fill:#000000;fill-opacity:1;stroke:none;stroke-width:0.264583"
       x="87.72628"
       y="107.35178"
       id="text26447"><tspan
         sodipodi:role="line"
         id="tspan26445"
         style="font-style:normal;font-variant:normal;font-weight:normal;font-stretch:normal;font-size:8.46667px;font-family:sans-serif;-inkscape-font-specification:'sans-serif, Normal';font-variant-ligatures:normal;font-variant-caps:normal;font-variant-numeric:normal;font-variant-east-asian:normal;stroke-width:0.264583"
         x="87.72628"
         y="107.35178">应用数学</tspan></text>
    <text
       xml:space="preserve"
       style="font-style:normal;font-variant:normal;font-weight:normal;font-stretch:normal;font-size:8.46667px;line-height:1.25;font-family:sans-serif;-inkscape-font-specification:'sans-serif, Normal';font-variant-ligatures:normal;font-variant-caps:normal;font-variant-numeric:normal;font-variant-east-asian:normal;fill:#000000;fill-opacity:1;stroke:none;stroke-width:0.264583"
       x="88.964874"
       y="149.27318"
       id="text28107"><tspan
         sodipodi:role="line"
         id="tspan28105"
         style="font-style:normal;font-variant:normal;font-weight:normal;font-stretch:normal;font-size:8.46667px;font-family:sans-serif;-inkscape-font-specification:'sans-serif, Normal';font-variant-ligatures:normal;font-variant-caps:normal;font-variant-numeric:normal;font-variant-east-asian:normal;stroke-width:0.264583"
         x="88.964874"
         y="149.27318">应用计算</tspan></text>
    <text
       xml:space="preserve"
       style="font-style:normal;font-variant:normal;font-weight:normal;font-stretch:normal;font-size:8.46667px;line-height:1.25;font-family:sans-serif;-inkscape-font-specification:'sans-serif, Normal';font-variant-ligatures:normal;font-variant-caps:normal;font-variant-numeric:normal;font-variant-east-asian:normal;fill:#000000;fill-opacity:1;stroke:none;stroke-width:0.264583"
       x="130.06609"
       y="142.6055"
       id="text29605"><tspan
         sodipodi:role="line"
         id="tspan29603"
         style="font-style:normal;font-variant:normal;font-weight:normal;font-stretch:normal;font-size:8.46667px;font-family:sans-serif;-inkscape-font-specification:'sans-serif, Normal';font-variant-ligatures:normal;font-variant-caps:normal;font-variant-numeric:normal;font-variant-east-asian:normal;stroke-width:0.264583"
         x="130.06609"
         y="142.6055">理想实验</tspan><tspan
         sodipodi:role="line"
         style="font-style:normal;font-variant:normal;font-weight:normal;font-stretch:normal;font-size:8.46667px;font-family:sans-serif;-inkscape-font-specification:'sans-serif, Normal';font-variant-ligatures:normal;font-variant-caps:normal;font-variant-numeric:normal;font-variant-east-asian:normal;stroke-width:0.264583"
         x="130.06609"
         y="153.40207"
         id="tspan11017">研究</tspan></text>
    <text
       xml:space="preserve"
       style="font-style:normal;font-variant:normal;font-weight:normal;font-stretch:normal;font-size:8.46667px;line-height:1.25;font-family:sans-serif;-inkscape-font-specification:'sans-serif, Normal';font-variant-ligatures:normal;font-variant-caps:normal;font-variant-numeric:normal;font-variant-east-asian:normal;fill:#000000;fill-opacity:1;stroke:none;stroke-width:0.264583"
       x="130.95639"
       y="107.95676"
       id="text31649"><tspan
         sodipodi:role="line"
         id="tspan31647"
         style="font-style:normal;font-variant:normal;font-weight:normal;font-stretch:normal;font-size:8.46667px;font-family:sans-serif;-inkscape-font-specification:'sans-serif, Normal';font-variant-ligatures:normal;font-variant-caps:normal;font-variant-numeric:normal;font-variant-east-asian:normal;stroke-width:0.264583"
         x="130.95639"
         y="107.95676">物理解释</tspan></text>
    <path
       style="fill:none;stroke:none;stroke-width:0.161896px;stroke-linecap:butt;stroke-linejoin:miter;stroke-opacity:1"
       d="m 56.039119,35.995647 c 20.208284,-14.593252 45.241541,-22.38275 70.162101,-21.832062 26.96902,0.595954 53.61522,11.006839 73.84491,28.851801"
       id="path1060"
       inkscape:path-effect="#path-effect1062"
       inkscape:original-d="m 56.039119,35.995647 c 27.254099,-8.524495 42.908447,-13.307334 70.162101,-21.832062 27.25365,-8.5247253 46.9851,20.232458 73.84491,28.851801"
       sodipodi:nodetypes="csc" />
    <path
       style="fill:none;stroke:none;stroke-width:0.264583px;stroke-linecap:butt;stroke-linejoin:miter;stroke-opacity:1"
       d="m 20.220476,163.99915 20.953932,37.41774"
       id="path12725"
       inkscape:path-effect="#path-effect12727"
       inkscape:original-d="m 20.220476,163.99915 c 6.984909,12.47284 13.969551,24.94542 20.953932,37.41774" />
    <path
       style="fill:none;stroke:none;stroke-width:0.264583px;stroke-linecap:butt;stroke-linejoin:miter;stroke-opacity:1"
       d="m 225.9333,169.53946 -37.41774,61.73926"
       id="path12878"
       inkscape:path-effect="#path-effect12880"
       inkscape:original-d="m 225.9333,169.53946 c -12.47232,20.58002 -24.94489,41.15977 -37.41774,61.73926" />
    <text
       xml:space="preserve"
       style="font-style:normal;font-variant:normal;font-weight:normal;font-stretch:normal;font-size:8.46667px;line-height:1.25;font-family:sans-serif;-inkscape-font-specification:'sans-serif, Normal';font-variant-ligatures:normal;font-variant-caps:normal;font-variant-numeric:normal;font-variant-east-asian:normal;fill:#000000;fill-opacity:1;stroke:none;stroke-width:0.264583"
       x="-6.6888981"
       y="92.658218"
       id="text14690"
       transform="rotate(-43.227432)"><tspan
         sodipodi:role="line"
         id="tspan14688"
         style="font-style:normal;font-variant:normal;font-weight:normal;font-stretch:normal;font-size:8.46667px;font-family:sans-serif;-inkscape-font-specification:'sans-serif, Normal';font-variant-ligatures:normal;font-variant-caps:normal;font-variant-numeric:normal;font-variant-east-asian:normal;stroke-width:0.264583"
         x="-6.6888981"
         y="92.658218">减阻</tspan></text>
    <text
       xml:space="preserve"
       style="font-style:normal;font-variant:normal;font-weight:normal;font-stretch:normal;font-size:8.46667px;line-height:1.25;font-family:sans-serif;-inkscape-font-specification:'sans-serif, Normal';font-variant-ligatures:normal;font-variant-caps:normal;font-variant-numeric:normal;font-variant-east-asian:normal;fill:#000000;fill-opacity:1;stroke:none;stroke-width:0.264583"
       x="68.274857"
       y="68.448029"
       id="text17916"
       transform="rotate(-17.581534)"><tspan
         sodipodi:role="line"
         id="tspan17914"
         style="font-style:normal;font-variant:normal;font-weight:normal;font-stretch:normal;font-size:8.46667px;font-family:sans-serif;-inkscape-font-specification:'sans-serif, Normal';font-variant-ligatures:normal;font-variant-caps:normal;font-variant-numeric:normal;font-variant-east-asian:normal;stroke-width:0.264583"
         x="68.274857"
         y="68.448029">空化、泄</tspan><tspan
         sodipodi:role="line"
         style="font-style:normal;font-variant:normal;font-weight:normal;font-stretch:normal;font-size:8.46667px;font-family:sans-serif;-inkscape-font-specification:'sans-serif, Normal';font-variant-ligatures:normal;font-variant-caps:normal;font-variant-numeric:normal;font-variant-east-asian:normal;stroke-width:0.264583"
         x="68.274857"
         y="79.244606"
         id="tspan20870">洪、涡轮</tspan></text>
    <text
       xml:space="preserve"
       style="font-style:normal;font-variant:normal;font-weight:normal;font-stretch:normal;font-size:8.46667px;line-height:1.25;font-family:sans-serif;-inkscape-font-specification:'sans-serif, Normal';font-variant-ligatures:normal;font-variant-caps:normal;font-variant-numeric:normal;font-variant-east-asian:normal;fill:#000000;fill-opacity:1;stroke:none;stroke-width:0.264583"
       x="138.17758"
       y="3.9631062"
       id="text23748"
       transform="rotate(16.224776)"><tspan
         sodipodi:role="line"
         id="tspan23746"
         style="font-style:normal;font-variant:normal;font-weight:normal;font-stretch:normal;font-size:8.46667px;font-family:sans-serif;-inkscape-font-specification:'sans-serif, Normal';font-variant-ligatures:normal;font-variant-caps:normal;font-variant-numeric:normal;font-variant-east-asian:normal;stroke-width:0.264583"
         x="138.17758"
         y="3.9631062">水下爆炸</tspan></text>
    <text
       xml:space="preserve"
       style="font-style:normal;font-variant:normal;font-weight:normal;font-stretch:normal;font-size:8.46667px;line-height:1.25;font-family:sans-serif;-inkscape-font-specification:'sans-serif, Normal';font-variant-ligatures:normal;font-variant-caps:normal;font-variant-numeric:normal;font-variant-east-asian:normal;fill:#000000;fill-opacity:1;stroke:none;stroke-width:0.264583"
       x="168.41982"
       y="-68.736671"
       id="text25720"
       transform="rotate(40.770898)"><tspan
         sodipodi:role="line"
         id="tspan25718"
         style="font-style:normal;font-variant:normal;font-weight:normal;font-stretch:normal;font-size:8.46667px;font-family:sans-serif;-inkscape-font-specification:'sans-serif, Normal';font-variant-ligatures:normal;font-variant-caps:normal;font-variant-numeric:normal;font-variant-east-asian:normal;stroke-width:0.264583"
         x="168.41982"
         y="-68.736671">地震气枪</tspan></text>
    <text
       xml:space="preserve"
       style="font-style:normal;font-variant:normal;font-weight:normal;font-stretch:normal;font-size:8.46667px;line-height:1.25;font-family:sans-serif;-inkscape-font-specification:'sans-serif, Normal';font-variant-ligatures:normal;font-variant-caps:normal;font-variant-numeric:normal;font-variant-east-asian:normal;fill:#000000;fill-opacity:1;stroke:none;stroke-width:0.264583"
       x="64.930496"
       y="242.56454"
       id="text28496"
       transform="rotate(-15.47649)"><tspan
         sodipodi:role="line"
         id="tspan28494"
         style="font-style:normal;font-variant:normal;font-weight:normal;font-stretch:normal;font-size:8.46667px;font-family:sans-serif;-inkscape-font-specification:'sans-serif, Normal';font-variant-ligatures:normal;font-variant-caps:normal;font-variant-numeric:normal;font-variant-east-asian:normal;stroke-width:0.264583"
         x="64.930496"
         y="242.56454">冲击波碎石</tspan></text>
    <text
       xml:space="preserve"
       style="font-style:normal;font-variant:normal;font-weight:normal;font-stretch:normal;font-size:8.46667px;line-height:1.25;font-family:sans-serif;-inkscape-font-specification:'sans-serif, Normal';font-variant-ligatures:normal;font-variant-caps:normal;font-variant-numeric:normal;font-variant-east-asian:normal;fill:#000000;fill-opacity:1;stroke:none;stroke-width:0.264583"
       x="-38.295933"
       y="257.86526"
       id="text29574"
       transform="rotate(-49.931512)"><tspan
         sodipodi:role="line"
         id="tspan29572"
         style="font-style:normal;font-variant:normal;font-weight:normal;font-stretch:normal;font-size:8.46667px;font-family:sans-serif;-inkscape-font-specification:'sans-serif, Normal';font-variant-ligatures:normal;font-variant-caps:normal;font-variant-numeric:normal;font-variant-east-asian:normal;stroke-width:0.264583"
         x="-38.295933"
         y="257.86526">超声微泡</tspan><tspan
         sodipodi:role="line"
         style="font-style:normal;font-variant:normal;font-weight:normal;font-stretch:normal;font-size:8.46667px;font-family:sans-serif;-inkscape-font-specification:'sans-serif, Normal';font-variant-ligatures:normal;font-variant-caps:normal;font-variant-numeric:normal;font-variant-east-asian:normal;stroke-width:0.264583"
         x="-38.295933"
         y="268.66183"
         id="tspan1679">致孔</tspan></text>
    <text
       xml:space="preserve"
       style="font-style:normal;font-variant:normal;font-weight:normal;font-stretch:normal;font-size:8.46667px;line-height:1.25;font-family:sans-serif;-inkscape-font-specification:'sans-serif, Normal';font-variant-ligatures:normal;font-variant-caps:normal;font-variant-numeric:normal;font-variant-east-asian:normal;fill:#000000;fill-opacity:1;stroke:none;stroke-width:0.264583"
       x="-86.376518"
       y="247.63135"
       id="text32074"
       transform="rotate(-70.287698)"><tspan
         sodipodi:role="line"
         id="tspan32072"
         style="font-style:normal;font-variant:normal;font-weight:normal;font-stretch:normal;font-size:8.46667px;font-family:sans-serif;-inkscape-font-specification:'sans-serif, Normal';font-variant-ligatures:normal;font-variant-caps:normal;font-variant-numeric:normal;font-variant-east-asian:normal;stroke-width:0.264583"
         x="-86.376518"
         y="247.63135">治疗用药</tspan></text>
    <text
       xml:space="preserve"
       style="font-style:normal;font-variant:normal;font-weight:normal;font-stretch:normal;font-size:8.46667px;line-height:1.25;font-family:sans-serif;-inkscape-font-specification:'sans-serif, Normal';font-variant-ligatures:normal;font-variant-caps:normal;font-variant-numeric:normal;font-variant-east-asian:normal;fill:#000000;fill-opacity:1;stroke:none;stroke-width:0.264583"
       x="152.58105"
       y="-162.06592"
       id="text33506"
       transform="rotate(71.196548)"><tspan
         sodipodi:role="line"
         id="tspan33504"
         style="font-style:normal;font-variant:normal;font-weight:normal;font-stretch:normal;font-size:8.46667px;font-family:sans-serif;-inkscape-font-specification:'sans-serif, Normal';font-variant-ligatures:normal;font-variant-caps:normal;font-variant-numeric:normal;font-variant-east-asian:normal;stroke-width:0.264583"
         x="152.58105"
         y="-162.06592">对比剂</tspan></text>
    <text
       xml:space="preserve"
       style="font-style:normal;font-variant:normal;font-weight:normal;font-stretch:normal;font-size:8.46667px;line-height:1.25;font-family:sans-serif;-inkscape-font-specification:'sans-serif, Normal';font-variant-ligatures:normal;font-variant-caps:normal;font-variant-numeric:normal;font-variant-east-asian:normal;fill:#000000;fill-opacity:1;stroke:none;stroke-width:0.264583"
       x="139.10765"
       y="174.56195"
       id="text34332"
       transform="rotate(15.913774)"><tspan
         sodipodi:role="line"
         id="tspan34330"
         style="font-style:normal;font-variant:normal;font-weight:normal;font-stretch:normal;font-size:8.46667px;font-family:sans-serif;-inkscape-font-specification:'sans-serif, Normal';font-variant-ligatures:normal;font-variant-caps:normal;font-variant-numeric:normal;font-variant-east-asian:normal;stroke-width:0.264583"
         x="139.10765"
         y="174.56195">化学混合</tspan></text>
    <text
       xml:space="preserve"
       style="font-style:normal;font-weight:normal;font-size:10.5833px;line-height:1.25;font-family:sans-serif;fill:#000000;fill-opacity:1;stroke:none;stroke-width:0.264583"
       x="45.875679"
       y="183.32857"
       id="text36186"><tspan
         sodipodi:role="line"
         id="tspan36184"
         style="stroke-width:0.264583"
         x="45.875679"
         y="183.32857"> </tspan></text>
    <text
       xml:space="preserve"
       style="font-style:normal;font-variant:normal;font-weight:normal;font-stretch:normal;font-size:8.46667px;line-height:1.25;font-family:sans-serif;-inkscape-font-specification:'sans-serif, Normal';font-variant-ligatures:normal;font-variant-caps:normal;font-variant-numeric:normal;font-variant-east-asian:normal;fill:#000000;fill-opacity:1;stroke:none;stroke-width:0.264583"
       x="154.81732"
       y="101.50587"
       id="text42458"
       transform="rotate(40.809894)"><tspan
         sodipodi:role="line"
         id="tspan42456"
         style="font-style:normal;font-variant:normal;font-weight:normal;font-stretch:normal;font-size:8.46667px;font-family:sans-serif;-inkscape-font-specification:'sans-serif, Normal';font-variant-ligatures:normal;font-variant-caps:normal;font-variant-numeric:normal;font-variant-east-asian:normal;stroke-width:0.264583"
         x="154.81732"
         y="101.50587">声致发光</tspan></text>
    <text
       xml:space="preserve"
       style="font-style:normal;font-variant:normal;font-weight:normal;font-stretch:normal;font-size:8.46667px;line-height:1.25;font-family:sans-serif;-inkscape-font-specification:'sans-serif, Normal';font-variant-ligatures:normal;font-variant-caps:normal;font-variant-numeric:normal;font-variant-east-asian:normal;fill:#000000;fill-opacity:1;stroke:none;stroke-width:0.264583"
       x="141.49303"
       y="22.820536"
       id="text43638"
       transform="rotate(67.179887)"><tspan
         sodipodi:role="line"
         id="tspan43636"
         style="font-style:normal;font-variant:normal;font-weight:normal;font-stretch:normal;font-size:8.46667px;font-family:sans-serif;-inkscape-font-specification:'sans-serif, Normal';font-variant-ligatures:normal;font-variant-caps:normal;font-variant-numeric:normal;font-variant-east-asian:normal;stroke-width:0.264583"
         x="141.49303"
         y="22.820536">声化学</tspan></text>
    <text
       xml:space="preserve"
       style="font-style:normal;font-variant:normal;font-weight:normal;font-stretch:normal;font-size:8.46667px;line-height:1.25;font-family:sans-serif;-inkscape-font-specification:'sans-serif, Normal';font-variant-ligatures:normal;font-variant-caps:normal;font-variant-numeric:normal;font-variant-east-asian:normal;fill:#000000;fill-opacity:1;stroke:none;stroke-width:0.264583"
       x="74.756676"
       y="-54.906052"
       id="text45226"
       transform="rotate(99.700421)"><tspan
         sodipodi:role="line"
         id="tspan45224"
         style="font-style:normal;font-variant:normal;font-weight:normal;font-stretch:normal;font-size:8.46667px;font-family:sans-serif;-inkscape-font-specification:'sans-serif, Normal';font-variant-ligatures:normal;font-variant-caps:normal;font-variant-numeric:normal;font-variant-east-asian:normal;stroke-width:0.264583"
         x="74.756676"
         y="-54.906052">清洗和去垢</tspan></text>
    <text
       xml:space="preserve"
       style="font-style:normal;font-variant:normal;font-weight:normal;font-stretch:normal;font-size:7.76111px;line-height:1.25;font-family:sans-serif;-inkscape-font-specification:'sans-serif, Normal';font-variant-ligatures:normal;font-variant-caps:normal;font-variant-numeric:normal;font-variant-east-asian:normal;fill:#000000;fill-opacity:1;stroke:none;stroke-width:0.264583"
       x="99.546066"
       y="186.07573"
       id="text47552"><tspan
         sodipodi:role="line"
         id="tspan47550"
         style="font-style:normal;font-variant:normal;font-weight:normal;font-stretch:normal;font-size:7.76111px;font-family:sans-serif;-inkscape-font-specification:'sans-serif, Normal';font-variant-ligatures:normal;font-variant-caps:normal;font-variant-numeric:normal;font-variant-east-asian:normal;stroke-width:0.264583"
         x="99.546066"
         y="186.07573">工程和工业设计</tspan></text>
    <path
       style="fill:none;stroke:#000000;stroke-width:0.5;stroke-linecap:butt;stroke-linejoin:miter;stroke-miterlimit:4;stroke-dasharray:none;stroke-opacity:1;marker-end:url(#Arrow1Mend)"
       d="m 109.50883,110.10959 -0.0659,25.40083"
       id="path13066" />
    <path
       style="fill:none;stroke:#000000;stroke-width:0.5;stroke-linecap:butt;stroke-linejoin:miter;stroke-miterlimit:4;stroke-dasharray:none;stroke-opacity:1;marker-end:url(#marker14050)"
       d="m 125.87062,126.16758 6.0815,6.0815"
       id="path13825" />
    <path
       style="fill:none;stroke:#000000;stroke-width:0.5;stroke-linecap:butt;stroke-linejoin:miter;stroke-miterlimit:4;stroke-dasharray:none;stroke-opacity:1"
       d="M 125.87062,126.16758 109.79327,110.09023"
       id="path13827" />
    <path
       style="fill:none;stroke:#000000;stroke-width:0.5;stroke-linecap:butt;stroke-linejoin:miter;stroke-miterlimit:4;stroke-dasharray:none;stroke-opacity:1;marker-start:url(#Arrow1Mstart)"
       d="m 136.69485,110.10964 h -10.85471 l -16.33131,-5e-5"
       id="path13829" />
    <ellipse
       style="fill:none;stroke:#000000;stroke-width:2.19438"
       id="path846"
       cx="124.7"
       cy="125.29997"
       rx="123.90281"
       ry="123.90279" />
  </g>
</svg>
