<?xml version="1.0" encoding="UTF-8" standalone="no"?>
<!-- Created with Inkscape (http://www.inkscape.org/) -->

<svg
   width="248.37016mm"
   height="79.623718mm"
   viewBox="0 0 248.37016 79.623718"
   version="1.1"
   id="svg5"
   inkscape:version="1.1.1 (3bf5ae0d25, 2021-09-20)"
   sodipodi:docname="impactandinterface.svg"
   xmlns:inkscape="http://www.inkscape.org/namespaces/inkscape"
   xmlns:sodipodi="http://sodipodi.sourceforge.net/DTD/sodipodi-0.dtd"
   xmlns="http://www.w3.org/2000/svg"
   xmlns:svg="http://www.w3.org/2000/svg">
  <sodipodi:namedview
     id="namedview7"
     pagecolor="#ffffff"
     bordercolor="#666666"
     borderopacity="1.0"
     inkscape:pageshadow="2"
     inkscape:pageopacity="0.0"
     inkscape:pagecheckerboard="0"
     inkscape:document-units="mm"
     showgrid="false"
     inkscape:zoom="0.366586"
     inkscape:cx="36.826284"
     inkscape:cy="403.72519"
     inkscape:window-width="1920"
     inkscape:window-height="1009"
     inkscape:window-x="-8"
     inkscape:window-y="-8"
     inkscape:window-maximized="1"
     inkscape:current-layer="layer1"
     fit-margin-top="0"
     fit-margin-left="0"
     fit-margin-right="0"
     fit-margin-bottom="0" />
  <defs
     id="defs2">
    <marker
       style="overflow:visible"
       id="marker2973"
       refX="0"
       refY="0"
       orient="auto"
       inkscape:stockid="Arrow1Mend"
       inkscape:isstock="true">
      <path
         transform="matrix(-0.4,0,0,-0.4,-4,0)"
         style="fill:context-stroke;fill-rule:evenodd;stroke:context-stroke;stroke-width:1pt"
         d="M 0,0 5,-5 -12.5,0 5,5 Z"
         id="path2721" />
    </marker>
    <inkscape:path-effect
       effect="bspline"
       id="path-effect24420"
       is_visible="true"
       lpeversion="1"
       weight="33.333333"
       steps="2"
       helper_size="0"
       apply_no_weight="true"
       apply_with_weight="true"
       only_selected="false" />
    <inkscape:path-effect
       effect="bspline"
       id="path-effect24302"
       is_visible="true"
       lpeversion="1"
       weight="33.333333"
       steps="2"
       helper_size="0"
       apply_no_weight="true"
       apply_with_weight="true"
       only_selected="false" />
    <inkscape:path-effect
       effect="bspline"
       id="path-effect23844"
       is_visible="true"
       lpeversion="1"
       weight="33.333333"
       steps="2"
       helper_size="0"
       apply_no_weight="true"
       apply_with_weight="true"
       only_selected="false" />
    <inkscape:path-effect
       effect="bspline"
       id="path-effect23426"
       is_visible="true"
       lpeversion="1"
       weight="33.333333"
       steps="2"
       helper_size="0"
       apply_no_weight="true"
       apply_with_weight="true"
       only_selected="false" />
    <inkscape:path-effect
       effect="bspline"
       id="path-effect22903"
       is_visible="true"
       lpeversion="1"
       weight="33.333333"
       steps="2"
       helper_size="0"
       apply_no_weight="true"
       apply_with_weight="true"
       only_selected="false" />
    <marker
       style="overflow:visible"
       id="Arrow1Mend"
       refX="0"
       refY="0"
       orient="auto"
       inkscape:stockid="Arrow1Mend"
       inkscape:isstock="true">
      <path
         transform="matrix(-0.4,0,0,-0.4,-4,0)"
         style="fill:context-stroke;fill-rule:evenodd;stroke:context-stroke;stroke-width:1pt"
         d="M 0,0 5,-5 -12.5,0 5,5 Z"
         id="path5249" />
    </marker>
    <inkscape:path-effect
       effect="bspline"
       id="path-effect22009"
       is_visible="true"
       lpeversion="1"
       weight="33.333333"
       steps="2"
       helper_size="0"
       apply_no_weight="true"
       apply_with_weight="true"
       only_selected="false" />
    <marker
       style="overflow:visible"
       id="Arrow1Lend"
       refX="0"
       refY="0"
       orient="auto"
       inkscape:stockid="Arrow1Lend"
       inkscape:isstock="true">
      <path
         transform="matrix(-0.8,0,0,-0.8,-10,0)"
         style="fill:context-stroke;fill-rule:evenodd;stroke:context-stroke;stroke-width:1pt"
         d="M 0,0 5,-5 -12.5,0 5,5 Z"
         id="path5243" />
    </marker>
    <inkscape:path-effect
       effect="bspline"
       id="path-effect5238"
       is_visible="true"
       lpeversion="1"
       weight="33.333333"
       steps="2"
       helper_size="0"
       apply_no_weight="true"
       apply_with_weight="true"
       only_selected="false" />
    <inkscape:path-effect
       effect="bspline"
       id="path-effect5234"
       is_visible="true"
       lpeversion="1"
       weight="33.333333"
       steps="2"
       helper_size="0"
       apply_no_weight="true"
       apply_with_weight="true"
       only_selected="false" />
    <inkscape:path-effect
       effect="bspline"
       id="path-effect4273"
       is_visible="true"
       lpeversion="1"
       weight="33.333333"
       steps="2"
       helper_size="0"
       apply_no_weight="true"
       apply_with_weight="true"
       only_selected="false" />
    <inkscape:path-effect
       effect="bspline"
       id="path-effect4235"
       is_visible="true"
       lpeversion="1"
       weight="33.333333"
       steps="2"
       helper_size="0"
       apply_no_weight="true"
       apply_with_weight="true"
       only_selected="false" />
    <inkscape:path-effect
       effect="bspline"
       id="path-effect4103"
       is_visible="true"
       lpeversion="1"
       weight="33.333333"
       steps="2"
       helper_size="0"
       apply_no_weight="true"
       apply_with_weight="true"
       only_selected="false" />
    <inkscape:path-effect
       effect="bspline"
       id="path-effect3882"
       is_visible="true"
       lpeversion="1"
       weight="33.333333"
       steps="2"
       helper_size="0"
       apply_no_weight="true"
       apply_with_weight="true"
       only_selected="false" />
    <inkscape:path-effect
       effect="bspline"
       id="path-effect3765"
       is_visible="true"
       lpeversion="1"
       weight="33.333333"
       steps="2"
       helper_size="0"
       apply_no_weight="true"
       apply_with_weight="true"
       only_selected="false" />
    <inkscape:path-effect
       effect="bspline"
       id="path-effect3244"
       is_visible="true"
       lpeversion="1"
       weight="33.333333"
       steps="2"
       helper_size="0"
       apply_no_weight="true"
       apply_with_weight="true"
       only_selected="false" />
    <inkscape:path-effect
       effect="bspline"
       id="path-effect2918"
       is_visible="true"
       lpeversion="1"
       weight="33.333333"
       steps="2"
       helper_size="0"
       apply_no_weight="true"
       apply_with_weight="true"
       only_selected="false" />
    <inkscape:path-effect
       effect="bspline"
       id="path-effect1435"
       is_visible="true"
       lpeversion="1"
       weight="33.333333"
       steps="2"
       helper_size="0"
       apply_no_weight="true"
       apply_with_weight="true"
       only_selected="false" />
    <inkscape:path-effect
       effect="bspline"
       id="path-effect1193"
       is_visible="true"
       lpeversion="1"
       weight="33.333333"
       steps="2"
       helper_size="0"
       apply_no_weight="true"
       apply_with_weight="true"
       only_selected="false" />
    <marker
       style="overflow:visible"
       id="Arrow1Lend-9"
       refX="0"
       refY="0"
       orient="auto"
       inkscape:stockid="Arrow1Lend"
       inkscape:isstock="true">
      <path
         transform="matrix(-0.8,0,0,-0.8,-10,0)"
         style="fill:context-stroke;fill-rule:evenodd;stroke:context-stroke;stroke-width:1pt"
         d="M 0,0 5,-5 -12.5,0 5,5 Z"
         id="path5243-8" />
    </marker>
  </defs>
  <g
     inkscape:label="图层 1"
     inkscape:groupmode="layer"
     id="layer1"
     transform="translate(-23.503717,-87.558516)">
    <path
       id="path850-2"
       style="fill:#98acff;fill-opacity:1;stroke:none;stroke-width:0.7;stroke-miterlimit:4;stroke-dasharray:none;stroke-opacity:1"
       d="m 61.08361,110.50229 v 38.85087 h -0.06925 a 7.4607763,7.4607771 0 0 0 7.459493,7.43572 7.4607763,7.4607771 0 0 0 7.460009,-7.43572 v -38.85087 z" />
    <path
       id="path850"
       style="fill:none;stroke:#000000;stroke-width:1.88976;stroke-miterlimit:4;stroke-dasharray:none;stroke-opacity:1"
       d="m 231.12891,342.08008 v 222.4043 h -0.26172 a 28.19821,28.198213 0 0 0 28.19336,28.10351 28.19821,28.198213 0 0 0 28.19531,-28.10351 v -222.4043 z"
       transform="scale(0.26458333)" />
    <rect
       style="fill:#000000;fill-opacity:0.381643;stroke:none;stroke-width:0.314427;stroke-miterlimit:4;stroke-dasharray:none;stroke-opacity:1"
       id="rect1733"
       width="39.100075"
       height="4.2684054"
       x="49.794331"
       y="157.67041" />
    <ellipse
       style="fill:#000000;fill-opacity:1;stroke:#000000;stroke-width:0.407375;stroke-miterlimit:4;stroke-dasharray:none;stroke-opacity:1"
       id="path2035"
       cx="68.350365"
       cy="156.81706"
       rx="0.29631218"
       ry="0.29631224" />
    <rect
       style="fill:none;fill-opacity:0.381643;stroke:#000000;stroke-width:0.4;stroke-miterlimit:4;stroke-dasharray:0.8, 0.8;stroke-dashoffset:0;stroke-opacity:1"
       id="rect2175"
       width="19.595024"
       height="14.595025"
       x="58.504429"
       y="149.62534" />
    <rect
       style="fill:none;fill-opacity:0.381643;stroke:#000000;stroke-width:0.4;stroke-miterlimit:4;stroke-dasharray:0.8, 0.8;stroke-dashoffset:0;stroke-opacity:1"
       id="rect2175-7"
       width="19.595024"
       height="14.595025"
       x="58.94915"
       y="104.1226" />
    <rect
       style="fill:none;fill-opacity:0.381643;stroke:#000000;stroke-width:0.4;stroke-miterlimit:4;stroke-dasharray:0.8, 0.8;stroke-dashoffset:0;stroke-opacity:1"
       id="rect2175-5"
       width="39.190002"
       height="29.190001"
       x="104.66855"
       y="136.95279" />
    <rect
       style="fill:none;fill-opacity:0.381643;stroke:#000000;stroke-width:0.404843;stroke-miterlimit:4;stroke-dasharray:0.809686, 0.809686;stroke-dashoffset:0;stroke-opacity:1"
       id="rect2175-5-5"
       width="39.595158"
       height="29.595156"
       x="104.2634"
       y="87.77858" />
    <rect
       style="fill:#98acff;fill-opacity:1;stroke:none;stroke-width:0.49762;stroke-miterlimit:4;stroke-dasharray:none;stroke-dashoffset:0;stroke-opacity:1"
       id="rect2643"
       width="29.50238"
       height="14.502379"
       x="109.22892"
       y="102.80191" />
    <path
       id="path2801"
       style="fill:#98acff;fill-opacity:1;stroke:#000000;stroke-width:0.357194;stroke-miterlimit:4;stroke-dasharray:none;stroke-dashoffset:0;stroke-opacity:1"
       d="m 138.8661,136.88358 h -29.63718 a 14.821284,14.538515 0 0 0 -0.004,0.10468 14.821284,14.538515 0 0 0 14.8214,14.53813 14.821284,14.538515 0 0 0 14.8214,-14.53813 14.821284,14.538515 0 0 0 -0.002,-0.10468 z" />
    <ellipse
       style="fill:#000000;fill-opacity:1;stroke:#000000;stroke-width:0.407375;stroke-miterlimit:4;stroke-dasharray:none;stroke-opacity:1"
       id="path2035-5"
       cx="124.09583"
       cy="151.5553"
       rx="0.29631218"
       ry="0.29631224" />
    <rect
       style="fill:#000000;fill-opacity:0.381643;stroke:none;stroke-width:0.468121;stroke-miterlimit:4;stroke-dasharray:none;stroke-opacity:1"
       id="rect1733-3"
       width="39.100075"
       height="9.4610901"
       x="104.65626"
       y="156.48683" />
    <path
       id="rect3648"
       style="fill:#ffff5e;fill-opacity:0.30000001;stroke:none;stroke-width:0.403942;stroke-miterlimit:4;stroke-dasharray:none;stroke-dashoffset:0;stroke-opacity:1"
       d="m 109.00171,99.503703 v 5.000217 h 30.00024 v -5.000217 c -0.20922,0.14473 -0.41859,0.28948 -0.62942,0.43357 -0.21084,0.144087 -0.42356,0.287757 -0.63924,0.429947 -0.10784,0.0711 -0.21642,0.14149 -0.32608,0.21188 -0.10965,0.0704 -0.21989,0.1403 -0.33176,0.2098 -0.11187,0.0695 -0.22502,0.13875 -0.33951,0.20723 -0.1145,0.0685 -0.23078,0.13631 -0.3483,0.2036 -0.11752,0.0673 -0.23666,0.13405 -0.35761,0.19999 -0.12094,0.0659 -0.24367,0.13141 -0.36845,0.19585 -0.12478,0.0644 -0.25132,0.12791 -0.38033,0.19069 -0.12902,0.0628 -0.26012,0.12456 -0.39378,0.18552 -0.13366,0.061 -0.27006,0.12086 -0.40876,0.17983 -0.1387,0.059 -0.28012,0.11731 -0.42426,0.17415 -0.14415,0.0568 -0.29081,0.11237 -0.4408,0.16691 -0.15,0.0545 -0.30316,0.10812 -0.45941,0.1602 -0.15624,0.0521 -0.31551,0.10242 -0.47801,0.15193 -0.16249,0.0495 -0.32826,0.0979 -0.49661,0.14469 -0.16834,0.0468 -0.33937,0.0924 -0.51314,0.13643 -0.17378,0.0441 -0.35037,0.0869 -0.52917,0.12816 -0.1788,0.0412 -0.35969,0.0811 -0.54312,0.11937 -0.18342,0.0383 -0.36943,0.0748 -0.55707,0.11007 -0.18764,0.0352 -0.377,0.0691 -0.56844,0.10129 -0.19145,0.0321 -0.38497,0.0625 -0.57981,0.0915 -0.19484,0.0289 -0.39127,0.056 -0.58911,0.0816 -0.19784,0.0256 -0.39696,0.0496 -0.59738,0.0718 -0.20042,0.0222 -0.40202,0.0427 -0.60461,0.0615 -0.2026,0.0187 -0.40594,0.036 -0.6103,0.0512 -0.20437,0.0152 -0.40974,0.0283 -0.61547,0.0398 -0.20573,0.0115 -0.41188,0.0212 -0.61857,0.0289 -0.20668,0.008 -0.41392,0.0142 -0.62115,0.0181 -0.20723,0.004 -0.41481,0.006 -0.62218,0.006 -0.20737,0 -0.41456,-0.002 -0.62167,-0.006 -0.20711,-0.004 -0.41418,-0.01 -0.62063,-0.0176 -0.20646,-0.008 -0.41212,-0.0174 -0.61754,-0.0289 -0.20541,-0.0115 -0.41045,-0.0251 -0.61443,-0.0403 -0.20398,-0.0152 -0.40711,-0.0324 -0.60926,-0.0512 -0.20216,-0.0188 -0.40313,-0.0393 -0.60307,-0.0615 -0.19994,-0.0222 -0.3985,-0.0457 -0.59583,-0.0713 -0.19733,-0.0256 -0.39375,-0.0532 -0.58808,-0.0822 -0.19433,-0.0289 -0.3868,-0.0593 -0.57774,-0.0915 -0.19094,-0.0321 -0.38025,-0.066 -0.56741,-0.10129 -0.18715,-0.0353 -0.37202,-0.0718 -0.555,-0.11007 -0.18298,-0.0383 -0.36418,-0.0781 -0.5426,-0.11937 -0.17842,-0.0412 -0.35415,-0.0841 -0.52762,-0.12816 -0.17347,-0.0441 -0.34451,-0.0896 -0.51263,-0.13643 -0.16812,-0.0468 -0.33319,-0.0947 -0.49558,-0.14417 -0.16238,-0.0495 -0.32175,-0.10037 -0.478,-0.15245 -0.15625,-0.0521 -0.3098,-0.10566 -0.45992,-0.1602 -0.15013,-0.0545 -0.29693,-0.11008 -0.44132,-0.16691 -0.14439,-0.0568 -0.28624,-0.11466 -0.4253,-0.17363 -0.13905,-0.059 -0.27568,-0.11888 -0.40979,-0.17984 -0.13411,-0.061 -0.26576,-0.12326 -0.39533,-0.18603 -0.12956,-0.0628 -0.25698,-0.12624 -0.3824,-0.19069 -0.12542,-0.0644 -0.24886,-0.12939 -0.37052,-0.19533 -0.12167,-0.066 -0.24137,-0.13269 -0.35967,-0.19999 -0.1183,-0.0673 -0.23503,-0.13564 -0.35036,-0.20412 -0.11534,-0.0685 -0.22933,-0.13719 -0.3421,-0.20671 -0.11277,-0.0695 -0.22427,-0.13942 -0.33487,-0.2098 -0.11059,-0.0704 -0.22036,-0.1413 -0.32918,-0.2124 -0.21764,-0.1422 -0.43201,-0.28583 -0.64492,-0.429947 -0.2129,-0.14411 -0.42429,-0.28881 -0.63562,-0.43357 z" />
    <rect
       style="fill:#ffff5e;fill-opacity:0.30000001;stroke:none;stroke-width:0.365001;stroke-miterlimit:4;stroke-dasharray:none;stroke-dashoffset:0;stroke-opacity:1"
       id="rect4801"
       width="29.718765"
       height="12.80037"
       x="109.00171"
       y="104.50391" />
    <rect
       style="fill:none;fill-opacity:0.381643;stroke:#000000;stroke-width:0.508442;stroke-miterlimit:4;stroke-dasharray:none;stroke-dashoffset:0;stroke-opacity:1"
       id="rect2539"
       width="29.491558"
       height="29.491558"
       x="109.22892"
       y="87.812737" />
    <path
       style="fill:none;stroke:#000000;stroke-width:0.264583px;stroke-linecap:butt;stroke-linejoin:miter;stroke-opacity:1;marker-end:url(#Arrow1Lend)"
       d="m 78.544173,118.71762 c 8.573325,-0.44798 17.146398,-0.89594 25.719227,-1.34389"
       id="path5232"
       inkscape:path-effect="#path-effect5234"
       inkscape:original-d="m 78.544173,118.71762 c 8.573339,-0.4477 17.146413,-0.89566 25.719227,-1.34389" />
    <path
       style="fill:none;stroke:#000000;stroke-width:0.265;stroke-linecap:butt;stroke-linejoin:miter;stroke-miterlimit:4;stroke-dasharray:none;stroke-opacity:1;marker-end:url(#Arrow1Lend)"
       d="m 78.099456,164.22036 c 8.856646,0.64083 17.713009,1.28164 26.569094,1.92243"
       id="path5236"
       inkscape:path-effect="#path-effect5238"
       inkscape:original-d="m 78.099456,164.22036 c 8.856628,0.64108 17.712991,1.28189 26.569094,1.92243" />
    <text
       xml:space="preserve"
       style="font-style:normal;font-variant:normal;font-weight:normal;font-stretch:normal;font-size:5.64444px;line-height:1.25;font-family:'Times New Roman';-inkscape-font-specification:'Times New Roman, Normal';font-variant-ligatures:normal;font-variant-caps:normal;font-variant-numeric:normal;font-variant-east-asian:normal;stroke-width:0.264583"
       x="23.456863"
       y="161.67194"
       id="text9342"><tspan
         sodipodi:role="line"
         id="tspan9340"
         style="font-style:normal;font-variant:normal;font-weight:normal;font-stretch:normal;font-size:5.64444px;font-family:'Times New Roman';-inkscape-font-specification:'Times New Roman, Normal';font-variant-ligatures:normal;font-variant-caps:normal;font-variant-numeric:normal;font-variant-east-asian:normal;stroke-width:0.264583"
         x="23.456863"
         y="161.67194">metal platform </tspan></text>
    <text
       xml:space="preserve"
       style="font-style:normal;font-variant:normal;font-weight:normal;font-stretch:normal;font-size:5.64444px;line-height:1.25;font-family:'Times New Roman';-inkscape-font-specification:'Times New Roman, Normal';font-variant-ligatures:normal;font-variant-caps:normal;font-variant-numeric:normal;font-variant-east-asian:normal;stroke-width:0.264583"
       x="41.320168"
       y="128.291"
       id="text10666"><tspan
         sodipodi:role="line"
         id="tspan10664"
         style="font-style:normal;font-variant:normal;font-weight:normal;font-stretch:normal;font-size:5.64444px;font-family:'Times New Roman';-inkscape-font-specification:'Times New Roman, Normal';font-variant-ligatures:normal;font-variant-caps:normal;font-variant-numeric:normal;font-variant-east-asian:normal;stroke-width:0.264583"
         x="41.320168"
         y="128.291">test tube </tspan></text>
    <text
       xml:space="preserve"
       style="font-style:normal;font-variant:normal;font-weight:normal;font-stretch:normal;font-size:5.64444px;line-height:1.25;font-family:'Times New Roman';-inkscape-font-specification:'Times New Roman, Normal';font-variant-ligatures:normal;font-variant-caps:normal;font-variant-numeric:normal;font-variant-east-asian:normal;stroke-width:0.264583"
       x="62.070473"
       y="133.34326"
       id="text12458"><tspan
         sodipodi:role="line"
         id="tspan12456"
         style="font-style:normal;font-variant:normal;font-weight:normal;font-stretch:normal;font-size:5.64444px;font-family:'Times New Roman';-inkscape-font-specification:'Times New Roman, Normal';font-variant-ligatures:normal;font-variant-caps:normal;font-variant-numeric:normal;font-variant-east-asian:normal;stroke-width:0.264583"
         x="62.070473"
         y="133.34326">water </tspan></text>
    <text
       xml:space="preserve"
       style="font-style:normal;font-variant:normal;font-weight:normal;font-stretch:normal;font-size:5.64444px;line-height:1.25;font-family:'Times New Roman';-inkscape-font-specification:'Times New Roman, Normal';font-variant-ligatures:normal;font-variant-caps:normal;font-variant-numeric:normal;font-variant-east-asian:normal;stroke-width:0.264583"
       x="144.97902"
       y="99.180069"
       id="text16582"><tspan
         sodipodi:role="line"
         id="tspan16580"
         style="font-style:normal;font-variant:normal;font-weight:normal;font-stretch:normal;font-size:5.64444px;font-family:'Times New Roman';-inkscape-font-specification:'Times New Roman, Normal';font-variant-ligatures:normal;font-variant-caps:normal;font-variant-numeric:normal;font-variant-east-asian:normal;stroke-width:0.264583"
         x="144.97902"
         y="99.180069">menisci or flat interface:</tspan><tspan
         sodipodi:role="line"
         style="font-style:normal;font-variant:normal;font-weight:normal;font-stretch:normal;font-size:5.64444px;font-family:'Times New Roman';-inkscape-font-specification:'Times New Roman, Normal';font-variant-ligatures:normal;font-variant-caps:normal;font-variant-numeric:normal;font-variant-east-asian:normal;stroke-width:0.264583"
         x="144.97902"
         y="106.23562"
         id="tspan16848">normal or hydrophobic</tspan></text>
    <text
       xml:space="preserve"
       style="font-style:normal;font-variant:normal;font-weight:normal;font-stretch:normal;font-size:5.64444px;line-height:1.25;font-family:'Times New Roman';-inkscape-font-specification:'Times New Roman, Normal';font-variant-ligatures:normal;font-variant-caps:normal;font-variant-numeric:normal;font-variant-east-asian:normal;stroke-width:0.264583"
       x="148.5"
       y="154.09357"
       id="text20764"><tspan
         sodipodi:role="line"
         id="tspan20762"
         style="font-style:normal;font-variant:normal;font-weight:normal;font-stretch:normal;font-size:5.64444px;font-family:'Times New Roman';-inkscape-font-specification:'Times New Roman, Normal';font-variant-ligatures:normal;font-variant-caps:normal;font-variant-numeric:normal;font-variant-east-asian:normal;stroke-width:0.264583"
         x="148.5"
         y="154.09357">point impact </tspan></text>
    <path
       style="fill:none;stroke:#000000;stroke-width:0.264583px;stroke-linecap:butt;stroke-linejoin:miter;stroke-opacity:1;marker-end:url(#Arrow1Mend)"
       d="m 146.69562,153.37181 c -6.61576,-0.24057 -13.2318,-0.48116 -19.84811,-0.72175"
       id="path22007"
       inkscape:path-effect="#path-effect22009"
       inkscape:original-d="m 146.69562,153.37181 c -6.61577,-0.24032 -13.23181,-0.4809 -19.84811,-0.72175" />
    <path
       id="path850-2-0"
       style="fill:#98acff;fill-opacity:1;stroke:none;stroke-width:0.7;stroke-miterlimit:4;stroke-dasharray:none;stroke-opacity:1"
       d="m 220.95788,111.06752 v 38.85087 h -0.0692 a 7.4607763,7.4607771 0 0 0 7.45949,7.43572 7.4607763,7.4607771 0 0 0 7.46001,-7.43572 v -38.85087 z" />
    <path
       id="path22676"
       style="fill:none;stroke:#000000;stroke-width:0.499999;stroke-miterlimit:4;stroke-dasharray:none;stroke-opacity:1"
       d="M 221.02714,91.074128 V 128.338 a 29.646017,29.646017 0 0 1 0.75241,-0.20153 29.646017,29.646017 0 0 1 2.17816,-0.41238 29.646017,29.646017 0 0 1 2.20348,-0.24805 29.646017,29.646017 0 0 1 2.21537,-0.0827 29.646017,29.646017 0 0 1 0.76326,0.01 29.646017,29.646017 0 0 1 0.76275,0.0294 29.646017,29.646017 0 0 1 0.76171,0.0491 29.646017,29.646017 0 0 1 0.76016,0.0687 29.646017,29.646017 0 0 1 0.75861,0.0879 29.646017,29.646017 0 0 1 0.75551,0.10801 29.646017,29.646017 0 0 1 0.75292,0.12712 29.646017,29.646017 0 0 1 0.74931,0.14676 29.646017,29.646017 0 0 1 0.74517,0.16537 29.646017,29.646017 0 0 1 0.69143,0.1726 V 91.074268 Z m 14.85025,37.284032 a 29.646017,29.646017 0 0 0 -0.69143,-0.1726 29.646017,29.646017 0 0 0 -0.74518,-0.16537 29.646017,29.646017 0 0 0 -0.7493,-0.14676 29.646017,29.646017 0 0 0 -0.75293,-0.12712 29.646017,29.646017 0 0 0 -0.75551,-0.10801 29.646017,29.646017 0 0 0 -0.75861,-0.0879 29.646017,29.646017 0 0 0 -0.76016,-0.0687 29.646017,29.646017 0 0 0 -0.7617,-0.0491 29.646017,29.646017 0 0 0 -0.76275,-0.0294 29.646017,29.646017 0 0 0 -0.76325,-0.01 29.646017,29.646017 0 0 0 -2.21538,0.0827 29.646017,29.646017 0 0 0 -2.20349,0.24805 29.646017,29.646017 0 0 0 -2.17815,0.41237 29.646017,29.646017 0 0 0 -0.75241,0.20154 v 10.35958 a 19.764011,19.764011 0 0 1 0.12867,-0.0563 19.764011,19.764011 0 0 1 1.39527,-0.48783 19.764011,19.764011 0 0 1 1.4273,-0.38292 19.764011,19.764011 0 0 1 1.45211,-0.2744 19.764011,19.764011 0 0 1 1.46916,-0.16588 19.764011,19.764011 0 0 1 1.47692,-0.0553 19.764011,19.764011 0 0 1 0.50848,0.007 19.764011,19.764011 0 0 1 0.50902,0.0196 19.764011,19.764011 0 0 1 0.50746,0.0326 19.764011,19.764011 0 0 1 0.50695,0.046 19.764011,19.764011 0 0 1 0.50539,0.0589 19.764011,19.764011 0 0 1 0.50385,0.0718 19.764011,19.764011 0 0 1 0.50177,0.0848 19.764011,19.764011 0 0 1 0.49972,0.0977 19.764011,19.764011 0 0 1 0.49661,0.11058 19.764011,19.764011 0 0 1 0.49403,0.12299 19.764011,19.764011 0 0 1 0.4904,0.13643 19.764011,19.764011 0 0 1 0.48679,0.1483 19.764011,19.764011 0 0 1 0.48266,0.16073 19.764011,19.764011 0 0 1 0.47852,0.17363 19.764011,19.764011 0 0 1 0.47388,0.18552 19.764011,19.764011 0 0 1 0.0553,0.0232 z m 0,10.39626 a 19.764011,19.764011 0 0 0 -0.0553,-0.0233 19.764011,19.764011 0 0 0 -0.47386,-0.18551 19.764011,19.764011 0 0 0 -0.47853,-0.17364 19.764011,19.764011 0 0 0 -0.48266,-0.16071 19.764011,19.764011 0 0 0 -0.48679,-0.14831 19.764011,19.764011 0 0 0 -0.49041,-0.13643 19.764011,19.764011 0 0 0 -0.49402,-0.12299 19.764011,19.764011 0 0 0 -0.49661,-0.11059 19.764011,19.764011 0 0 0 -0.49971,-0.0977 19.764011,19.764011 0 0 0 -0.50178,-0.0847 19.764011,19.764011 0 0 0 -0.50386,-0.0718 19.764011,19.764011 0 0 0 -0.50538,-0.0589 19.764011,19.764011 0 0 0 -0.50696,-0.046 19.764011,19.764011 0 0 0 -0.50745,-0.0325 19.764011,19.764011 0 0 0 -0.50901,-0.0196 19.764011,19.764011 0 0 0 -0.5085,-0.007 19.764011,19.764011 0 0 0 -1.47691,0.0553 19.764011,19.764011 0 0 0 -1.46917,0.16588 19.764011,19.764011 0 0 0 -1.4521,0.2744 19.764011,19.764011 0 0 0 -1.42731,0.38292 19.764011,19.764011 0 0 0 -1.39526,0.48783 19.764011,19.764011 0 0 0 -0.12868,0.0563 v 11.22102 h -0.0692 a 7.4607763,7.4607771 0 0 0 0.061,0.53072 9.8820056,9.8820056 0 0 1 0.11369,-0.13178 9.8820056,9.8820056 0 0 1 0.52245,-0.52244 9.8820056,9.8820056 0 0 1 0.56017,-0.48214 9.8820056,9.8820056 0 0 1 0.59428,-0.43874 9.8820056,9.8820056 0 0 1 0.6258,-0.39325 9.8820056,9.8820056 0 0 1 0.65371,-0.3452 9.8820056,9.8820056 0 0 1 0.67696,-0.29559 9.8820056,9.8820056 0 0 1 0.69763,-0.24391 9.8820056,9.8820056 0 0 1 0.71365,-0.19121 9.8820056,9.8820056 0 0 1 0.72657,-0.13746 9.8820056,9.8820056 0 0 1 0.73432,-0.0827 9.8820056,9.8820056 0 0 1 0.73846,-0.0279 9.8820056,9.8820056 0 0 1 0.25425,0.004 9.8820056,9.8820056 0 0 1 0.25425,0.01 9.8820056,9.8820056 0 0 1 0.25424,0.016 9.8820056,9.8820056 0 0 1 0.25322,0.0232 9.8820056,9.8820056 0 0 1 0.2527,0.0295 9.8820056,9.8820056 0 0 1 0.25218,0.0357 9.8820056,9.8820056 0 0 1 0.25063,0.0424 9.8820056,9.8820056 0 0 1 0.24959,0.0491 9.8820056,9.8820056 0 0 1 0.24857,0.0553 9.8820056,9.8820056 0 0 1 0.24701,0.0615 9.8820056,9.8820056 0 0 1 0.24495,0.0677 9.8820056,9.8820056 0 0 1 0.24339,0.0744 9.8820056,9.8820056 0 0 1 0.24133,0.0806 9.8820056,9.8820056 0 0 1 0.23927,0.0868 9.8820056,9.8820056 0 0 1 0.23719,0.0925 9.8820056,9.8820056 0 0 1 0.23461,0.0992 9.8820056,9.8820056 0 0 1 0.23151,0.10489 9.8820056,9.8820056 0 0 1 0.22893,0.1106 9.8820056,9.8820056 0 0 1 0.22634,0.11677 9.8820056,9.8820056 0 0 1 0.22324,0.12249 9.8820056,9.8820056 0 0 1 0.21963,0.12815 9.8820056,9.8820056 0 0 1 0.21652,0.13385 9.8820056,9.8820056 0 0 1 0.21291,0.13901 9.8820056,9.8820056 0 0 1 0.20929,0.14469 9.8820056,9.8820056 0 0 1 0.20515,0.15037 9.8820056,9.8820056 0 0 1 0.20206,0.15556 9.8820056,9.8820056 0 0 1 0.1974,0.16018 9.8820056,9.8820056 0 0 1 0.19327,0.16537 9.8820056,9.8820056 0 0 1 0.18862,0.17053 9.8820056,9.8820056 0 0 1 0.18449,0.17518 9.8820056,9.8820056 0 0 1 0.18035,0.17984 9.8820056,9.8820056 0 0 1 0.17518,0.18449 9.8820056,9.8820056 0 0 1 0.17001,0.18914 9.8820056,9.8820056 0 0 1 0.009,0.0103 7.4607763,7.4607771 0 0 0 0.0698,-0.6072 z m -0.0695,11.77188 a 9.8820056,9.8820056 0 0 0 -0.009,-0.0103 9.8820056,9.8820056 0 0 0 -0.17001,-0.18914 9.8820056,9.8820056 0 0 0 -0.17518,-0.18448 9.8820056,9.8820056 0 0 0 -0.18035,-0.17983 9.8820056,9.8820056 0 0 0 -0.18449,-0.17518 9.8820056,9.8820056 0 0 0 -0.18862,-0.17054 9.8820056,9.8820056 0 0 0 -0.19326,-0.16537 9.8820056,9.8820056 0 0 0 -0.19741,-0.1602 9.8820056,9.8820056 0 0 0 -0.20205,-0.15554 9.8820056,9.8820056 0 0 0 -0.20515,-0.15038 9.8820056,9.8820056 0 0 0 -0.2093,-0.1447 9.8820056,9.8820056 0 0 0 -0.21291,-0.13901 9.8820056,9.8820056 0 0 0 -0.21651,-0.13383 9.8820056,9.8820056 0 0 0 -0.21964,-0.12816 9.8820056,9.8820056 0 0 0 -0.22324,-0.12247 9.8820056,9.8820056 0 0 0 -0.22634,-0.11679 9.8820056,9.8820056 0 0 0 -0.22893,-0.11059 9.8820056,9.8820056 0 0 0 -0.23151,-0.1049 9.8820056,9.8820056 0 0 0 -0.23461,-0.0992 9.8820056,9.8820056 0 0 0 -0.2372,-0.0925 9.8820056,9.8820056 0 0 0 -0.23926,-0.0868 9.8820056,9.8820056 0 0 0 -0.24133,-0.0806 9.8820056,9.8820056 0 0 0 -0.24339,-0.0744 9.8820056,9.8820056 0 0 0 -0.24494,-0.0677 9.8820056,9.8820056 0 0 0 -0.24702,-0.0615 9.8820056,9.8820056 0 0 0 -0.24857,-0.0553 9.8820056,9.8820056 0 0 0 -0.24959,-0.0491 9.8820056,9.8820056 0 0 0 -0.25063,-0.0424 9.8820056,9.8820056 0 0 0 -0.25219,-0.0357 9.8820056,9.8820056 0 0 0 -0.25269,-0.0295 9.8820056,9.8820056 0 0 0 -0.25322,-0.0232 9.8820056,9.8820056 0 0 0 -0.25424,-0.016 9.8820056,9.8820056 0 0 0 -0.25425,-0.01 9.8820056,9.8820056 0 0 0 -0.25424,-0.004 9.8820056,9.8820056 0 0 0 -0.73846,0.0279 9.8820056,9.8820056 0 0 0 -0.73433,0.0827 9.8820056,9.8820056 0 0 0 -0.72657,0.13746 9.8820056,9.8820056 0 0 0 -0.71365,0.1912 9.8820056,9.8820056 0 0 0 -0.69763,0.24391 9.8820056,9.8820056 0 0 0 -0.67697,0.29559 9.8820056,9.8820056 0 0 0 -0.65369,0.3452 9.8820056,9.8820056 0 0 0 -0.62581,0.39326 9.8820056,9.8820056 0 0 0 -0.59428,0.43873 9.8820056,9.8820056 0 0 0 -0.56017,0.48214 9.8820056,9.8820056 0 0 0 -0.52245,0.52245 9.8820056,9.8820056 0 0 0 -0.11369,0.13178 7.4607763,7.4607771 0 0 0 2.64015,5.17229 5,5 0 0 1 0.12247,-0.34933 5,5 0 0 1 0.14986,-0.34262 5,5 0 0 1 0.17467,-0.33072 5,5 0 0 1 0.19895,-0.31678 5,5 0 0 1 0.22221,-0.30076 5,5 0 0 1 0.24391,-0.28319 5,5 0 0 1 0.26407,-0.26458 5,5 0 0 1 0.2837,-0.24391 5,5 0 0 1 0.30076,-0.22221 5,5 0 0 1 0.31626,-0.19895 5,5 0 0 1 0.33073,-0.17467 5,5 0 0 1 0.34261,-0.14935 5,5 0 0 1 0.35296,-0.1235 5,5 0 0 1 0.36121,-0.0966 5,5 0 0 1 0.36742,-0.0698 5,5 0 0 1 0.37157,-0.0419 5,5 0 0 1 0.37361,-0.014 5,5 0 0 1 0.12867,0.002 5,5 0 0 1 0.12868,0.005 5,5 0 0 1 0.12867,0.008 5,5 0 0 1 0.12816,0.0114 5,5 0 0 1 0.12815,0.015 5,5 0 0 1 0.12713,0.0181 5,5 0 0 1 0.12712,0.0217 5,5 0 0 1 0.12609,0.0248 5,5 0 0 1 0.12609,0.0279 5,5 0 0 1 0.12454,0.031 5,5 0 0 1 0.12403,0.0346 5,5 0 0 1 0.1235,0.0372 5,5 0 0 1 0.12196,0.0408 5,5 0 0 1 0.12092,0.0439 5,5 0 0 1 0.11989,0.047 5,5 0 0 1 0.11887,0.0501 5,5 0 0 1 0.11729,0.0527 5,5 0 0 1 0.11576,0.0563 5,5 0 0 1 0.11472,0.0589 5,5 0 0 1 0.11265,0.062 5,5 0 0 1 0.11111,0.0651 5,5 0 0 1 0.10955,0.0677 5,5 0 0 1 0.10801,0.0703 5,5 0 0 1 0.10542,0.0734 5,5 0 0 1 0.10439,0.076 5,5 0 0 1 0.1018,0.0785 5,5 0 0 1 0.0997,0.0811 5,5 0 0 1 0.0982,0.0837 5,5 0 0 1 0.0956,0.0863 5,5 0 0 1 0.093,0.0884 5,5 0 0 1 0.0909,0.0915 5,5 0 0 1 0.0889,0.093 5,5 0 0 1 0.0863,0.0956 5,5 0 0 1 0.0837,0.0982 5,5 0 0 1 0.0811,0.0997 5,5 0 0 1 0.0786,0.1018 5,5 0 0 1 0.076,0.10387 5,5 0 0 1 0.0734,0.10594 5,5 0 0 1 0.0703,0.108 5,5 0 0 1 0.0677,0.10956 5,5 0 0 1 0.0651,0.1111 5,5 0 0 1 0.062,0.11266 5,5 0 0 1 0.0589,0.11472 5,5 0 0 1 0.0558,0.11575 5,5 0 0 1 0.0532,0.11731 5,5 0 0 1 0.0501,0.11885 5,5 0 0 1 0.047,0.11989 5,5 0 0 1 0.0439,0.12093 5,5 0 0 1 0.0408,0.12195 5,5 0 0 1 0.006,0.0181 7.4607763,7.4607771 0 0 0 2.60243,-5.07049 z m -2.60242,5.07049 a 5,5 0 0 0 -0.006,-0.0181 5,5 0 0 0 -0.0408,-0.12196 5,5 0 0 0 -0.0439,-0.12092 5,5 0 0 0 -0.047,-0.11989 5,5 0 0 0 -0.0501,-0.11886 5,5 0 0 0 -0.0532,-0.1173 5,5 0 0 0 -0.0558,-0.11576 5,5 0 0 0 -0.0589,-0.11472 5,5 0 0 0 -0.062,-0.11266 5,5 0 0 0 -0.0651,-0.1111 5,5 0 0 0 -0.0677,-0.10955 5,5 0 0 0 -0.0703,-0.10801 5,5 0 0 0 -0.0734,-0.10594 5,5 0 0 0 -0.076,-0.10387 5,5 0 0 0 -0.0786,-0.1018 5,5 0 0 0 -0.0811,-0.0997 5,5 0 0 0 -0.0837,-0.0982 5,5 0 0 0 -0.0863,-0.0956 5,5 0 0 0 -0.0889,-0.093 5,5 0 0 0 -0.0909,-0.0915 5,5 0 0 0 -0.093,-0.0884 5,5 0 0 0 -0.0956,-0.0863 5,5 0 0 0 -0.0982,-0.0837 5,5 0 0 0 -0.0997,-0.0811 5,5 0 0 0 -0.10181,-0.0785 5,5 0 0 0 -0.10438,-0.076 5,5 0 0 0 -0.10542,-0.0734 5,5 0 0 0 -0.10801,-0.0703 5,5 0 0 0 -0.10955,-0.0677 5,5 0 0 0 -0.11111,-0.0651 5,5 0 0 0 -0.11265,-0.062 5,5 0 0 0 -0.11472,-0.0589 5,5 0 0 0 -0.11576,-0.0563 5,5 0 0 0 -0.1173,-0.0527 5,5 0 0 0 -0.11886,-0.0501 5,5 0 0 0 -0.11989,-0.047 5,5 0 0 0 -0.12092,-0.0439 5,5 0 0 0 -0.12196,-0.0408 5,5 0 0 0 -0.1235,-0.0372 5,5 0 0 0 -0.12403,-0.0346 5,5 0 0 0 -0.12454,-0.031 5,5 0 0 0 -0.12609,-0.0279 5,5 0 0 0 -0.12609,-0.0248 5,5 0 0 0 -0.12712,-0.0217 5,5 0 0 0 -0.12713,-0.0181 5,5 0 0 0 -0.12815,-0.015 5,5 0 0 0 -0.12816,-0.0114 5,5 0 0 0 -0.12867,-0.008 5,5 0 0 0 -0.12868,-0.005 5,5 0 0 0 -0.12867,-0.002 5,5 0 0 0 -0.37362,0.0139 5,5 0 0 0 -0.37156,0.0419 5,5 0 0 0 -0.36742,0.0698 5,5 0 0 0 -0.36121,0.0966 5,5 0 0 0 -0.35296,0.12351 5,5 0 0 0 -0.34261,0.14934 5,5 0 0 0 -0.33073,0.17467 5,5 0 0 0 -0.31626,0.19895 5,5 0 0 0 -0.30076,0.22221 5,5 0 0 0 -0.2837,0.24391 5,5 0 0 0 -0.26407,0.26459 5,5 0 0 0 -0.24391,0.28318 5,5 0 0 0 -0.22221,0.30076 5,5 0 0 0 -0.19895,0.31678 5,5 0 0 0 -0.17467,0.33073 5,5 0 0 0 -0.14986,0.34261 5,5 0 0 0 -0.12247,0.34933 7.4607763,7.4607771 0 0 0 4.75836,1.73271 7.4607763,7.4607771 0 0 0 4.78782,-1.75803 z" />
    <ellipse
       style="fill:#000000;fill-opacity:1;stroke:#000000;stroke-width:0.407375;stroke-miterlimit:4;stroke-dasharray:none;stroke-opacity:1"
       id="path2035-0"
       cx="228.40503"
       cy="157.38237"
       rx="0.29631218"
       ry="0.29631224" />
    <rect
       style="fill:#000000;fill-opacity:0.381643;stroke:none;stroke-width:0.314427;stroke-miterlimit:4;stroke-dasharray:none;stroke-opacity:1"
       id="rect1733-6"
       width="39.100075"
       height="4.2684054"
       x="208.84109"
       y="157.94931" />
    <path
       style="fill:none;stroke:#ffffff;stroke-width:0.264583px;stroke-linecap:butt;stroke-linejoin:miter;stroke-opacity:1"
       d="m 220.75159,116.46916 c 2.45886,0.1695 4.9175,0.33898 7.39996,0.33853 2.48246,-4.5e-4 4.98865,-0.17079 7.49457,-0.34112"
       id="path23424"
       inkscape:path-effect="#path-effect23426"
       inkscape:original-d="m 220.75159,116.46916 c 2.45888,0.16923 4.91752,0.33872 7.37587,0.50845 2.50653,-0.1706 5.01272,-0.34096 7.51866,-0.51104" />
    <path
       style="fill:none;stroke:#ffffff;stroke-width:0.264583px;stroke-linecap:butt;stroke-linejoin:miter;stroke-opacity:1"
       d="m 220.88681,131.41618 c 5.01875,0 10.03723,0 15.05545,0"
       id="path23842"
       inkscape:path-effect="#path-effect23844"
       inkscape:original-d="m 220.88681,131.41618 c 5.01875,2.7e-4 10.03723,2.7e-4 15.05545,0" />
    <rect
       style="fill:#000000;fill-opacity:0.381643;stroke:none;stroke-width:0.314427;stroke-miterlimit:4;stroke-dasharray:none;stroke-opacity:1"
       id="rect1733-6-7"
       width="39.100075"
       height="4.2684054"
       x="-155.17664"
       y="211.48022"
       transform="rotate(-90)" />
    <rect
       style="fill:#000000;fill-opacity:0.381643;stroke:none;stroke-width:0.314427;stroke-miterlimit:4;stroke-dasharray:none;stroke-opacity:1"
       id="rect1733-6-7-9"
       width="39.100075"
       height="4.2684054"
       x="-155.94217"
       y="239.67729"
       transform="rotate(-90)" />
    <path
       style="fill:none;stroke:#000000;stroke-width:0.5;stroke-linecap:butt;stroke-linejoin:miter;stroke-miterlimit:4;stroke-dasharray:none;stroke-opacity:1;marker-end:url(#marker2973)"
       d="m 213.35909,149.0234 c 0,-7.78263 0,-15.56553 0,-23.3487"
       id="path24300"
       inkscape:path-effect="#path-effect24302"
       inkscape:original-d="m 213.35909,149.0234 c 2.7e-4,-7.78263 2.7e-4,-15.56553 0,-23.3487" />
    <path
       style="fill:none;stroke:#ffffff;stroke-width:0.5;stroke-linecap:butt;stroke-linejoin:miter;stroke-miterlimit:4;stroke-dasharray:none;stroke-opacity:1;marker-end:url(#Arrow1Mend)"
       d="m 241.81134,124.97091 c 0,7.78263 0,15.56553 0,23.3487"
       id="path24300-6"
       inkscape:path-effect="#path-effect24420"
       inkscape:original-d="m 241.81134,124.97091 c 2.6e-4,7.78263 2.6e-4,15.56553 0,23.3487" />
    <text
       xml:space="preserve"
       style="font-style:normal;font-variant:normal;font-weight:normal;font-stretch:normal;font-size:5.64444px;line-height:1.25;font-family:'Times New Roman';-inkscape-font-specification:'Times New Roman, Normal';font-variant-ligatures:normal;font-variant-caps:normal;font-variant-numeric:normal;font-variant-east-asian:normal;stroke-width:0.264583"
       x="184.14146"
       y="132.1817"
       id="text25075"><tspan
         sodipodi:role="line"
         id="tspan25073"
         style="font-style:normal;font-variant:normal;font-weight:normal;font-stretch:normal;font-size:5.64444px;font-family:'Times New Roman';-inkscape-font-specification:'Times New Roman, Normal';font-variant-ligatures:normal;font-variant-caps:normal;font-variant-numeric:normal;font-variant-east-asian:normal;stroke-width:0.264583"
         x="184.14146"
         y="132.1817">impulsive </tspan><tspan
         sodipodi:role="line"
         style="font-style:normal;font-variant:normal;font-weight:normal;font-stretch:normal;font-size:5.64444px;font-family:'Times New Roman';-inkscape-font-specification:'Times New Roman, Normal';font-variant-ligatures:normal;font-variant-caps:normal;font-variant-numeric:normal;font-variant-east-asian:normal;stroke-width:0.264583"
         x="184.14146"
         y="139.23726"
         id="tspan30007">pressure </tspan></text>
    <text
       xml:space="preserve"
       style="font-style:normal;font-variant:normal;font-weight:normal;font-stretch:normal;font-size:5.64444px;line-height:1.25;font-family:'Times New Roman';-inkscape-font-specification:'Times New Roman, Normal';font-variant-ligatures:normal;font-variant-caps:normal;font-variant-numeric:normal;font-variant-east-asian:normal;stroke-width:0.264583"
       x="246.0219"
       y="134.73347"
       id="text27839"><tspan
         sodipodi:role="line"
         id="tspan27837"
         style="font-style:normal;font-variant:normal;font-weight:normal;font-stretch:normal;font-size:5.64444px;font-family:'Times New Roman';-inkscape-font-specification:'Times New Roman, Normal';font-variant-ligatures:normal;font-variant-caps:normal;font-variant-numeric:normal;font-variant-east-asian:normal;stroke-width:0.264583"
         x="246.0219"
         y="134.73347">rarefaction  </tspan></text>
  </g>
</svg>
